<svg xmlns="http://www.w3.org/2000/svg" viewBox="0 0 360 320" role="img" aria-labelledby="title desc">
  <title id="title">Cartoon business analyst</title>
  <desc id="desc">A cartoon business analyst with a laptop, notes, and a planning board.</desc>
  <defs>
    <linearGradient id="blob" x1="52" y1="34" x2="302" y2="272" gradientUnits="userSpaceOnUse">
      <stop offset="0" stop-color="#fff6dd"/>
      <stop offset="0.55" stop-color="#ffe0d1"/>
      <stop offset="1" stop-color="#def5eb"/>
    </linearGradient>
    <linearGradient id="shirt" x1="126" y1="128" x2="226" y2="228" gradientUnits="userSpaceOnUse">
      <stop offset="0" stop-color="#ff9b70"/>
      <stop offset="1" stop-color="#ffb94a"/>
    </linearGradient>
    <linearGradient id="laptop" x1="135" y1="188" x2="247" y2="234" gradientUnits="userSpaceOnUse">
      <stop offset="0" stop-color="#214665"/>
      <stop offset="1" stop-color="#12304a"/>
    </linearGradient>
  </defs>

  <path d="M72 78c20-38 62-58 107-57 35 1 68 14 94 39 28 27 42 64 39 100-3 37-23 73-56 97-31 23-71 31-109 24-39-7-75-29-95-61-24-38-20-97 20-142z" fill="url(#blob)"/>

  <circle cx="72" cy="82" r="14" fill="#42b7a3" opacity="0.28"/>
  <circle cx="293" cy="68" r="12" fill="#ffd666" opacity="0.42"/>
  <circle cx="312" cy="220" r="18" fill="#ff8f6f" opacity="0.24"/>

  <rect x="38" y="56" width="72" height="56" rx="18" fill="#ffffff" opacity="0.92"/>
  <rect x="50" y="70" width="48" height="8" rx="4" fill="#ffb94a"/>
  <rect x="50" y="84" width="34" height="8" rx="4" fill="#42b7a3"/>
  <rect x="50" y="98" width="40" height="8" rx="4" fill="#12304a" opacity="0.18"/>

  <rect x="269" y="103" width="52" height="66" rx="18" fill="#ffffff" opacity="0.92"/>
  <rect x="281" y="117" width="28" height="8" rx="4" fill="#12304a" opacity="0.16"/>
  <path d="M283 142l8 8 15-18" fill="none" stroke="#42b7a3" stroke-linecap="round" stroke-linejoin="round" stroke-width="6"/>

  <path d="M135 140c11-11 27-17 45-17 19 0 37 7 49 19l17 65H117l18-67z" fill="url(#shirt)"/>
  <path d="M165 138l14 18 16-18" fill="#fff7ed"/>
  <rect x="171" y="156" width="16" height="52" rx="8" fill="#fff2da"/>
  <rect x="160" y="204" width="40" height="24" rx="12" fill="#ffd666"/>

  <path d="M142 160c-18 9-28 22-30 38l29 7 18-30-17-15z" fill="#f4bf9f"/>
  <path d="M219 160c19 6 33 20 40 40l-29 10-22-33 11-17z" fill="#f4bf9f"/>
  <circle cx="131" cy="205" r="10" fill="#f4bf9f"/>
  <circle cx="237" cy="214" r="10" fill="#f4bf9f"/>

  <circle cx="180" cy="103" r="40" fill="#f6c7ab"/>
  <path d="M142 95c1-25 18-45 39-45 23 0 40 15 47 34l-8 19c-7-6-16-8-27-8-15 0-29 3-42 11l-9-11z" fill="#12304a"/>
  <path d="M143 98c6 8 17 14 37 14 22 0 34-7 43-16-3 22-16 38-43 38-21 0-34-12-37-36z" fill="#f6c7ab"/>
  <circle cx="165" cy="108" r="4" fill="#12304a"/>
  <circle cx="197" cy="108" r="4" fill="#12304a"/>
  <path d="M171 122c7 6 14 6 21 0" fill="none" stroke="#cc7b63" stroke-linecap="round" stroke-width="4"/>
  <rect x="149" y="101" width="20" height="14" rx="7" fill="none" stroke="#12304a" stroke-width="3"/>
  <rect x="191" y="101" width="20" height="14" rx="7" fill="none" stroke="#12304a" stroke-width="3"/>
  <path d="M169 108h22" fill="none" stroke="#12304a" stroke-width="3"/>

  <rect x="135" y="183" width="100" height="53" rx="12" fill="url(#laptop)"/>
  <rect x="144" y="191" width="82" height="35" rx="8" fill="#d7f0ea"/>
  <path d="M128 236h114c6 0 12 4 14 10H114c2-6 8-10 14-10z" fill="#7a8d9c"/>
  <path d="M176 207l8 8 14-15" fill="none" stroke="#42b7a3" stroke-linecap="round" stroke-linejoin="round" stroke-width="6"/>

  <rect x="66" y="244" width="232" height="28" rx="14" fill="#12304a"/>
  <rect x="86" y="236" width="192" height="22" rx="11" fill="#31506a"/>
  <rect x="252" y="220" width="16" height="28" rx="8" fill="#ffd666"/>
  <rect x="250" y="214" width="20" height="10" rx="5" fill="#ffffff"/>

  <path d="M282 40c12 0 22 10 22 22 0 5-2 10-5 14l5 14-14-9h-8c-12 0-22-10-22-22s10-22 22-22z" fill="#ffffff" opacity="0.96"/>
  <path d="M279 60h7m7 0h7m-14-8v16" fill="none" stroke="#ff8f6f" stroke-linecap="round" stroke-width="5"/>
</svg>
