<svg xmlns="http://www.w3.org/2000/svg" viewBox="0 0 320 300" role="img" aria-labelledby="title desc">
  <title id="title">Chris cartoon portrait</title>
  <desc id="desc">Cartoon illustration of Chris, Delivery Lead, with short dark hair, a trimmed beard, and a burgundy shirt under a charcoal jacket.</desc>
  <defs>
    <linearGradient id="bg" x1="40" y1="28" x2="280" y2="268" gradientUnits="userSpaceOnUse">
      <stop offset="0" stop-color="#eef5ff"/>
      <stop offset="0.5" stop-color="#f8e7df"/>
      <stop offset="1" stop-color="#ece8ff"/>
    </linearGradient>
    <linearGradient id="jacket" x1="98" y1="150" x2="230" y2="252" gradientUnits="userSpaceOnUse">
      <stop offset="0" stop-color="#4b5667"/>
      <stop offset="1" stop-color="#243241"/>
    </linearGradient>
    <linearGradient id="shirt" x1="138" y1="152" x2="186" y2="226" gradientUnits="userSpaceOnUse">
      <stop offset="0" stop-color="#b95554"/>
      <stop offset="1" stop-color="#8f3439"/>
    </linearGradient>
    <linearGradient id="card" x1="188" y1="178" x2="262" y2="240" gradientUnits="userSpaceOnUse">
      <stop offset="0" stop-color="#ffffff"/>
      <stop offset="1" stop-color="#dde7f2"/>
    </linearGradient>
  </defs>

  <path d="M62 68c22-34 60-52 103-52 41 0 77 16 100 44 24 28 34 66 28 104-7 42-33 80-72 101-39 21-89 22-128 2-38-20-64-57-68-99-3-35 9-67 37-100z" fill="url(#bg)"/>

  <circle cx="55" cy="91" r="13" fill="#6f80d8" opacity="0.2"/>
  <circle cx="270" cy="72" r="11" fill="#ffb36d" opacity="0.28"/>
  <circle cx="261" cy="232" r="15" fill="#82c6c1" opacity="0.24"/>

  <rect x="45" y="64" width="70" height="54" rx="16" fill="#ffffff" opacity="0.92"/>
  <path d="M58 80h44m-44 13h31m0 13h13" fill="none" stroke="#7b4ec5" stroke-linecap="round" stroke-width="7"/>

  <rect x="224" y="60" width="52" height="68" rx="16" fill="#ffffff" opacity="0.92"/>
  <rect x="236" y="74" width="28" height="7" rx="3.5" fill="#243241" opacity="0.14"/>
  <path d="M238 94h24m-24 11h16" fill="none" stroke="#d35957" stroke-linecap="round" stroke-width="5"/>

  <path d="M108 152c15-19 36-28 59-28 24 0 46 10 61 29l14 65H94l14-66z" fill="url(#jacket)"/>
  <path d="M143 152h34v66h-34z" fill="url(#shirt)"/>
  <path d="M146 152c6 7 13 11 22 11s17-4 23-11" fill="none" stroke="#f3e9e8" stroke-linecap="round" stroke-width="9"/>
  <path d="M130 214h74v18c0 6-5 11-11 11h-52c-6 0-11-5-11-11v-18z" fill="#18232e" opacity="0.12"/>

  <path d="M107 171c-18 8-31 22-37 42l23 11 27-38-13-15z" fill="#e6b796"/>
  <circle cx="84" cy="222" r="10" fill="#e6b796"/>
  <path d="M218 171c17 6 30 17 38 31l-19 18-30-28 11-21z" fill="#e6b796"/>
  <circle cx="253" cy="213" r="10" fill="#e6b796"/>

  <path d="M111 100c2-33 25-58 56-58 17 0 32 6 42 16 12 11 18 26 18 43l-10 20c-10-9-27-14-51-14-21 0-39 5-52 14l-3-21z" fill="#1f2530"/>
  <path d="M111 104c4-29 25-48 55-48 31 0 52 20 53 48 0 33-22 58-55 58-32 0-53-24-53-58z" fill="#e6b796"/>
  <path d="M118 92c12-12 30-18 49-18 19 0 36 6 49 18l2-12c-10-17-28-28-50-28-22 0-42 11-50 28v12z" fill="#1f2530"/>

  <path d="M136 101c6-4 12-5 18-3" fill="none" stroke="#3f2d24" stroke-linecap="round" stroke-width="3"/>
  <path d="M174 98c6-2 12-1 18 3" fill="none" stroke="#3f2d24" stroke-linecap="round" stroke-width="3"/>
  <circle cx="146" cy="110" r="4" fill="#1f2530"/>
  <circle cx="181" cy="110" r="4" fill="#1f2530"/>
  <path d="M150 130c7 4 16 4 24 0" fill="none" stroke="#a95a4d" stroke-linecap="round" stroke-width="4"/>

  <rect x="188" y="178" width="76" height="58" rx="12" fill="url(#card)"/>
  <rect x="196" y="186" width="60" height="42" rx="8" fill="#ffffff"/>
  <path d="M204 198h42" fill="none" stroke="#243241" stroke-linecap="round" stroke-width="5"/>
  <path d="M204 210h16m8 0h12m8 0h4" fill="none" stroke="#6f80d8" stroke-linecap="round" stroke-width="5"/>
  <path d="M204 221h20m8 0h16" fill="none" stroke="#d35957" stroke-linecap="round" stroke-width="5"/>
  <rect x="188" y="172" width="30" height="12" rx="6" fill="#ffb36d"/>

  <rect x="72" y="240" width="178" height="22" rx="11" fill="#243241"/>
  <rect x="90" y="232" width="142" height="16" rx="8" fill="#52657c"/>

  <path d="M241 35c11 0 20 9 20 20 0 5-2 10-5 13l5 12-12-8h-8c-11 0-20-9-20-20s9-20 20-20z" fill="#ffffff" opacity="0.95"/>
  <path d="M237 54h20m-20 8h12" fill="none" stroke="#6f80d8" stroke-linecap="round" stroke-width="4.5"/>
</svg>
