<svg xmlns="http://www.w3.org/2000/svg" viewBox="0 0 320 300" role="img" aria-labelledby="title desc">
  <title id="title">Ethan cartoon portrait</title>
  <desc id="desc">Cartoon illustration of Ethan, Lead Engineer, with short spiky hair, a navy hoodie, and a code card.</desc>
  <defs>
    <linearGradient id="bg" x1="42" y1="30" x2="280" y2="268" gradientUnits="userSpaceOnUse">
      <stop offset="0" stop-color="#edf5ff"/>
      <stop offset="0.52" stop-color="#e8f7f4"/>
      <stop offset="1" stop-color="#fbe6d9"/>
    </linearGradient>
    <linearGradient id="hoodie" x1="100" y1="150" x2="230" y2="252" gradientUnits="userSpaceOnUse">
      <stop offset="0" stop-color="#406eae"/>
      <stop offset="1" stop-color="#1f4675"/>
    </linearGradient>
    <linearGradient id="shirt" x1="138" y1="154" x2="186" y2="228" gradientUnits="userSpaceOnUse">
      <stop offset="0" stop-color="#f3f6fb"/>
      <stop offset="1" stop-color="#dbe6f2"/>
    </linearGradient>
    <linearGradient id="card" x1="188" y1="178" x2="264" y2="240" gradientUnits="userSpaceOnUse">
      <stop offset="0" stop-color="#ffffff"/>
      <stop offset="1" stop-color="#ddebf2"/>
    </linearGradient>
  </defs>

  <path d="M62 68c21-34 60-52 103-52 40 0 76 15 100 43 24 28 34 66 28 104-7 42-34 80-73 101-39 22-89 22-128 2-38-20-64-57-68-99-3-35 9-67 38-99z" fill="url(#bg)"/>

  <circle cx="54" cy="92" r="13" fill="#53b7ab" opacity="0.22"/>
  <circle cx="270" cy="72" r="11" fill="#ffb867" opacity="0.3"/>
  <circle cx="260" cy="232" r="15" fill="#5878c7" opacity="0.2"/>

  <rect x="44" y="66" width="72" height="54" rx="16" fill="#ffffff" opacity="0.92"/>
  <path d="M58 80h40m-40 13h24m10 0h8m-42 13h34" fill="none" stroke="#2a5b8b" stroke-linecap="round" stroke-width="6"/>

  <rect x="224" y="60" width="50" height="68" rx="16" fill="#ffffff" opacity="0.9"/>
  <rect x="236" y="74" width="26" height="7" rx="3.5" fill="#17344d" opacity="0.14"/>
  <path d="M238 94h10m6 0h10m-26 12h26" fill="none" stroke="#406eae" stroke-linecap="round" stroke-width="4.5"/>

  <path d="M108 152c14-19 35-29 58-29s46 10 62 29l14 66H94l14-66z" fill="url(#hoodie)"/>
  <path d="M147 154h26v64h-26z" fill="url(#shirt)"/>
  <path d="M126 150c8 9 21 16 40 16 18 0 33-6 44-17" fill="none" stroke="#87a9d2" stroke-linecap="round" stroke-width="10"/>
  <path d="M135 151l18 24m29-24-18 24" fill="none" stroke="#dce8f5" stroke-linecap="round" stroke-width="4"/>

  <path d="M108 170c-18 9-30 24-36 42l22 12 26-38-12-16z" fill="#c99973"/>
  <circle cx="84" cy="221" r="10" fill="#c99973"/>
  <path d="M217 169c18 5 31 16 40 32l-20 18-30-28 10-22z" fill="#c99973"/>
  <circle cx="254" cy="213" r="10" fill="#c99973"/>

  <ellipse cx="165" cy="108" rx="54" ry="55" fill="#c99973"/>
  <path d="M111 97c3-17 11-29 24-38l10 5 8-14 13 12 14-14 8 16 12-6c12 8 20 21 22 39-10-8-27-13-57-13-22 0-39 4-54 13z" fill="#243241"/>
  <path d="M123 75l10-16 12 10 10-17 12 16 14-18 9 17 13-9 8 17-11 8c-11-7-26-10-44-10-17 0-31 3-43 10l-10-8z" fill="#243241"/>

  <path d="M136 100c6-4 12-5 18-4" fill="none" stroke="#4f3426" stroke-linecap="round" stroke-width="3"/>
  <path d="M174 100c6-1 12 0 18 4" fill="none" stroke="#4f3426" stroke-linecap="round" stroke-width="3"/>
  <circle cx="146" cy="111" r="4" fill="#17344d"/>
  <circle cx="181" cy="111" r="4" fill="#17344d"/>
  <path d="M149 130c8 5 17 5 25 0" fill="none" stroke="#b56e5d" stroke-linecap="round" stroke-width="4"/>

  <rect x="188" y="178" width="76" height="58" rx="12" fill="url(#card)"/>
  <rect x="196" y="186" width="60" height="42" rx="8" fill="#ffffff"/>
  <path d="M204 198h16m10 0h18" fill="none" stroke="#1f4675" stroke-linecap="round" stroke-width="5"/>
  <path d="M204 210h8m6 0h8m6 0h8m6 0h8" fill="none" stroke="#53b7ab" stroke-linecap="round" stroke-width="5"/>
  <path d="M204 222h20m8 0h12" fill="none" stroke="#ffb867" stroke-linecap="round" stroke-width="5"/>
  <rect x="188" y="172" width="30" height="12" rx="6" fill="#53b7ab"/>

  <rect x="72" y="240" width="178" height="22" rx="11" fill="#244a6b"/>
  <rect x="90" y="232" width="142" height="16" rx="8" fill="#4e7394"/>

  <path d="M240 35c11 0 20 9 20 20 0 5-2 10-5 13l5 12-12-8h-8c-11 0-20-9-20-20s9-20 20-20z" fill="#ffffff" opacity="0.95"/>
  <path d="M236 54h8m8 0h8m-18 8h18" fill="none" stroke="#406eae" stroke-linecap="round" stroke-width="4.5"/>
</svg>
