<svg xmlns="http://www.w3.org/2000/svg" viewBox="0 0 320 300" role="img" aria-labelledby="title desc">
  <title id="title">Lena cartoon portrait</title>
  <desc id="desc">Cartoon illustration of Lena, Complaints Platform Product Owner, with short auburn curls, glasses, and a green blazer.</desc>
  <defs>
    <linearGradient id="bg" x1="44" y1="30" x2="278" y2="268" gradientUnits="userSpaceOnUse">
      <stop offset="0" stop-color="#fff4d9"/>
      <stop offset="0.5" stop-color="#ffe2ea"/>
      <stop offset="1" stop-color="#e0f5ef"/>
    </linearGradient>
    <linearGradient id="jacket" x1="102" y1="150" x2="228" y2="250" gradientUnits="userSpaceOnUse">
      <stop offset="0" stop-color="#6cb970"/>
      <stop offset="1" stop-color="#2f7d53"/>
    </linearGradient>
    <linearGradient id="board" x1="192" y1="176" x2="262" y2="242" gradientUnits="userSpaceOnUse">
      <stop offset="0" stop-color="#fdfefe"/>
      <stop offset="1" stop-color="#dceaf3"/>
    </linearGradient>
  </defs>

  <path d="M62 68c21-34 59-52 103-52 40 0 76 15 99 43 24 28 34 66 28 104-7 42-34 80-72 101-39 22-90 22-129 2-38-20-64-57-68-99-3-35 8-67 39-99z" fill="url(#bg)"/>

  <circle cx="54" cy="92" r="13" fill="#ff9f74" opacity="0.26"/>
  <circle cx="268" cy="70" r="10" fill="#67c9b2" opacity="0.34"/>
  <circle cx="262" cy="232" r="15" fill="#ffd464" opacity="0.28"/>

  <rect x="42" y="66" width="72" height="54" rx="16" fill="#ffffff" opacity="0.92"/>
  <rect x="56" y="80" width="30" height="7" rx="3.5" fill="#f08d4a"/>
  <rect x="56" y="93" width="40" height="7" rx="3.5" fill="#307d55"/>
  <rect x="56" y="106" width="28" height="7" rx="3.5" fill="#17344d" opacity="0.15"/>

  <rect x="224" y="60" width="50" height="68" rx="16" fill="#ffffff" opacity="0.9"/>
  <rect x="236" y="74" width="26" height="7" rx="3.5" fill="#17344d" opacity="0.14"/>
  <path d="M238 94h22m-22 10h14" fill="none" stroke="#6cb970" stroke-linecap="round" stroke-width="5"/>

  <path d="M108 151c14-18 35-28 58-28s46 10 62 29l14 66H94l14-67z" fill="url(#jacket)"/>
  <path d="M144 150c7 8 15 12 24 12 10 0 20-4 29-12" fill="none" stroke="#edf8f0" stroke-linecap="round" stroke-width="10"/>
  <path d="M151 151h20v67h-20z" fill="#f7f3ea"/>
  <path d="M132 214h58v16c0 7-6 13-13 13h-32c-7 0-13-6-13-13v-16z" fill="#26465f" opacity="0.12"/>

  <path d="M108 170c-18 9-30 24-36 42l22 12 26-38-12-16z" fill="#f1c5ab"/>
  <circle cx="84" cy="221" r="10" fill="#f1c5ab"/>
  <path d="M217 169c18 5 31 16 40 32l-20 18-30-28 10-22z" fill="#f1c5ab"/>
  <circle cx="254" cy="213" r="10" fill="#f1c5ab"/>

  <path d="M112 97c0-31 22-54 54-54 16 0 30 5 40 15 12 10 19 24 20 41l-11 18c-8-8-26-14-49-14-22 0-40 5-53 14l-1-20z" fill="#9a4f2d"/>
  <path d="M109 103c5-29 25-47 56-47 14 0 27 4 37 12 11 9 18 22 19 38 0 31-22 55-56 55-35 0-56-24-56-58z" fill="#f2c7b1"/>

  <circle cx="121" cy="84" r="14" fill="#9a4f2d"/>
  <circle cx="139" cy="72" r="15" fill="#9a4f2d"/>
  <circle cx="160" cy="68" r="16" fill="#9a4f2d"/>
  <circle cx="181" cy="71" r="15" fill="#9a4f2d"/>
  <circle cx="200" cy="84" r="14" fill="#9a4f2d"/>
  <path d="M116 84c10-7 25-12 47-12 23 0 38 5 49 12l2 15c-10-8-27-13-51-13-23 0-39 5-49 14l2-16z" fill="#9a4f2d"/>

  <path d="M135 99c5-4 11-5 17-4" fill="none" stroke="#5a2e1b" stroke-linecap="round" stroke-width="3"/>
  <path d="M174 95c6-1 12 0 17 4" fill="none" stroke="#5a2e1b" stroke-linecap="round" stroke-width="3"/>
  <circle cx="146" cy="109" r="4" fill="#17344d"/>
  <circle cx="181" cy="109" r="4" fill="#17344d"/>
  <rect x="132" y="101" width="26" height="16" rx="8" fill="none" stroke="#cc5f55" stroke-width="3"/>
  <rect x="169" y="101" width="26" height="16" rx="8" fill="none" stroke="#cc5f55" stroke-width="3"/>
  <path d="M158 109h11" fill="none" stroke="#cc5f55" stroke-width="3"/>
  <path d="M149 129c8 5 17 5 25 0" fill="none" stroke="#c97861" stroke-linecap="round" stroke-width="4"/>

  <rect x="188" y="178" width="76" height="58" rx="12" fill="url(#board)"/>
  <rect x="196" y="186" width="60" height="42" rx="8" fill="#ffffff"/>
  <path d="M204 197h18m8 0h18" fill="none" stroke="#d66f5f" stroke-linecap="round" stroke-width="5"/>
  <path d="M204 210h40" fill="none" stroke="#2f7d53" stroke-linecap="round" stroke-width="5"/>
  <path d="M204 221h22m8 0h14" fill="none" stroke="#f0ae46" stroke-linecap="round" stroke-width="5"/>
  <rect x="188" y="172" width="30" height="12" rx="6" fill="#ffcf5c"/>

  <rect x="72" y="240" width="178" height="22" rx="11" fill="#244a6b"/>
  <rect x="90" y="232" width="142" height="16" rx="8" fill="#477095"/>

  <path d="M240 35c11 0 20 9 20 20 0 5-2 10-5 13l5 12-12-8h-8c-11 0-20-9-20-20s9-20 20-20z" fill="#ffffff" opacity="0.95"/>
  <path d="M236 54h8m6 0h8m-22 7h20" fill="none" stroke="#d66f5f" stroke-linecap="round" stroke-width="4.5"/>
</svg>
