<svg xmlns="http://www.w3.org/2000/svg" viewBox="0 0 320 300" role="img" aria-labelledby="title desc">
  <title id="title">Omar cartoon portrait</title>
  <desc id="desc">Cartoon illustration of Omar, Architecture and Platform Lead, with a shaved head, glasses, a gold jacket, and a platform diagram card.</desc>
  <defs>
    <linearGradient id="bg" x1="42" y1="28" x2="280" y2="268" gradientUnits="userSpaceOnUse">
      <stop offset="0" stop-color="#eef7ff"/>
      <stop offset="0.5" stop-color="#fbe9d9"/>
      <stop offset="1" stop-color="#e4f5ef"/>
    </linearGradient>
    <linearGradient id="jacket" x1="102" y1="150" x2="230" y2="252" gradientUnits="userSpaceOnUse">
      <stop offset="0" stop-color="#d2a14b"/>
      <stop offset="1" stop-color="#a87923"/>
    </linearGradient>
    <linearGradient id="shirt" x1="140" y1="154" x2="186" y2="228" gradientUnits="userSpaceOnUse">
      <stop offset="0" stop-color="#2a7b7d"/>
      <stop offset="1" stop-color="#16585b"/>
    </linearGradient>
    <linearGradient id="card" x1="188" y1="176" x2="264" y2="240" gradientUnits="userSpaceOnUse">
      <stop offset="0" stop-color="#ffffff"/>
      <stop offset="1" stop-color="#ddebf2"/>
    </linearGradient>
  </defs>

  <path d="M62 68c21-34 60-52 103-52 40 0 76 15 100 43 24 28 34 66 28 104-7 42-34 80-73 101-39 22-89 22-128 2-38-20-64-57-68-99-3-35 9-67 38-99z" fill="url(#bg)"/>

  <circle cx="54" cy="92" r="13" fill="#4aa8a1" opacity="0.22"/>
  <circle cx="270" cy="72" r="11" fill="#f6bd62" opacity="0.34"/>
  <circle cx="260" cy="232" r="15" fill="#6e86d8" opacity="0.2"/>

  <rect x="44" y="66" width="72" height="54" rx="16" fill="#ffffff" opacity="0.92"/>
  <path d="M58 80h40m-40 13h22m8 0h10m-40 13h30" fill="none" stroke="#1e6668" stroke-linecap="round" stroke-width="6"/>

  <rect x="224" y="60" width="50" height="68" rx="16" fill="#ffffff" opacity="0.9"/>
  <rect x="236" y="74" width="26" height="7" rx="3.5" fill="#17344d" opacity="0.14"/>
  <path d="M238 94h10l8 8 8-8h10" fill="none" stroke="#d2a14b" stroke-linecap="round" stroke-linejoin="round" stroke-width="4.5"/>

  <path d="M108 151c14-18 35-28 58-28s46 10 62 29l14 66H94l14-67z" fill="url(#jacket)"/>
  <path d="M146 152h28v66h-28z" fill="url(#shirt)"/>
  <path d="M144 152c7 8 14 12 23 12 10 0 19-4 28-12" fill="none" stroke="#faecd3" stroke-linecap="round" stroke-width="10"/>
  <path d="M132 214h66v18c0 7-5 12-12 12h-42c-7 0-12-5-12-12v-18z" fill="#17344d" opacity="0.12"/>

  <path d="M108 170c-18 9-30 24-36 42l22 12 26-38-12-16z" fill="#d8a983"/>
  <circle cx="84" cy="221" r="10" fill="#d8a983"/>
  <path d="M217 169c18 5 31 16 40 32l-20 18-30-28 10-22z" fill="#d8a983"/>
  <circle cx="254" cy="213" r="10" fill="#d8a983"/>

  <ellipse cx="164" cy="108" rx="53" ry="54" fill="#d8a983"/>
  <path d="M112 102c3-30 24-49 52-49 29 0 50 19 53 49-7-8-19-13-34-16-25-4-48 0-71 16z" fill="#5b4838"/>
  <path d="M133 73c7-13 18-20 31-20 13 0 25 7 31 20-8-3-18-5-31-5-13 0-23 2-31 5z" fill="#5b4838" opacity="0.9"/>

  <path d="M136 99c6-4 12-5 18-4" fill="none" stroke="#5b4838" stroke-linecap="round" stroke-width="3"/>
  <path d="M174 99c6-1 12 0 18 4" fill="none" stroke="#5b4838" stroke-linecap="round" stroke-width="3"/>
  <circle cx="146" cy="111" r="4" fill="#17344d"/>
  <circle cx="181" cy="111" r="4" fill="#17344d"/>
  <rect x="132" y="103" width="26" height="16" rx="8" fill="none" stroke="#17344d" stroke-width="3"/>
  <rect x="169" y="103" width="26" height="16" rx="8" fill="none" stroke="#17344d" stroke-width="3"/>
  <path d="M158 111h11" fill="none" stroke="#17344d" stroke-width="3"/>
  <path d="M149 130c8 5 17 5 25 0" fill="none" stroke="#b56e5d" stroke-linecap="round" stroke-width="4"/>

  <rect x="188" y="178" width="76" height="58" rx="12" fill="url(#card)"/>
  <rect x="196" y="186" width="60" height="42" rx="8" fill="#ffffff"/>
  <rect x="204" y="195" width="12" height="12" rx="4" fill="#1e6668"/>
  <rect x="224" y="195" width="12" height="12" rx="4" fill="#d2a14b"/>
  <rect x="244" y="195" width="12" height="12" rx="4" fill="#6e86d8"/>
  <path d="M216 201h8m12 0h8" fill="none" stroke="#8da0b0" stroke-linecap="round" stroke-width="3.5"/>
  <path d="M210 218h38" fill="none" stroke="#1e6668" stroke-linecap="round" stroke-width="5"/>
  <rect x="188" y="172" width="30" height="12" rx="6" fill="#4aa8a1"/>

  <rect x="72" y="240" width="178" height="22" rx="11" fill="#244a6b"/>
  <rect x="90" y="232" width="142" height="16" rx="8" fill="#4a6f90"/>

  <path d="M240 35c11 0 20 9 20 20 0 5-2 10-5 13l5 12-12-8h-8c-11 0-20-9-20-20s9-20 20-20z" fill="#ffffff" opacity="0.95"/>
  <path d="M236 54h24m-16 8h16" fill="none" stroke="#6e86d8" stroke-linecap="round" stroke-width="4.5"/>
</svg>
