<svg xmlns="http://www.w3.org/2000/svg" viewBox="0 0 320 300" role="img" aria-labelledby="title desc">
  <title id="title">Priya cartoon portrait</title>
  <desc id="desc">Cartoon illustration of Priya, Quality Analyst, with a low ponytail, a mustard jacket, and a checklist card.</desc>
  <defs>
    <linearGradient id="bg" x1="42" y1="28" x2="280" y2="268" gradientUnits="userSpaceOnUse">
      <stop offset="0" stop-color="#eef6ff"/>
      <stop offset="0.5" stop-color="#ffe9dc"/>
      <stop offset="1" stop-color="#e8f5e8"/>
    </linearGradient>
    <linearGradient id="jacket" x1="102" y1="150" x2="230" y2="252" gradientUnits="userSpaceOnUse">
      <stop offset="0" stop-color="#d3a23a"/>
      <stop offset="1" stop-color="#a36f18"/>
    </linearGradient>
    <linearGradient id="shirt" x1="140" y1="154" x2="186" y2="228" gradientUnits="userSpaceOnUse">
      <stop offset="0" stop-color="#ffffff"/>
      <stop offset="1" stop-color="#e8eef6"/>
    </linearGradient>
    <linearGradient id="card" x1="188" y1="178" x2="264" y2="240" gradientUnits="userSpaceOnUse">
      <stop offset="0" stop-color="#ffffff"/>
      <stop offset="1" stop-color="#ddebf2"/>
    </linearGradient>
  </defs>

  <path d="M62 68c21-34 60-52 103-52 40 0 76 15 100 43 24 28 34 66 28 104-7 42-34 80-73 101-39 22-89 22-128 2-38-20-64-57-68-99-3-35 9-67 38-99z" fill="url(#bg)"/>

  <circle cx="54" cy="92" r="13" fill="#4da89b" opacity="0.22"/>
  <circle cx="270" cy="72" r="11" fill="#ffb76b" opacity="0.3"/>
  <circle cx="260" cy="232" r="15" fill="#7f9bd7" opacity="0.2"/>

  <rect x="44" y="66" width="72" height="54" rx="16" fill="#ffffff" opacity="0.92"/>
  <path d="M58 80h42m-42 13h18m8 0h16m-42 13h30" fill="none" stroke="#2f6a6d" stroke-linecap="round" stroke-width="6"/>

  <rect x="224" y="60" width="50" height="68" rx="16" fill="#ffffff" opacity="0.9"/>
  <rect x="236" y="74" width="26" height="7" rx="3.5" fill="#17344d" opacity="0.14"/>
  <path d="M240 95l5 5 8-10m-13 21l5 5 12-14" fill="none" stroke="#d3a23a" stroke-linecap="round" stroke-linejoin="round" stroke-width="4.5"/>

  <path d="M108 151c14-18 35-28 58-28s46 10 62 29l14 66H94l14-67z" fill="url(#jacket)"/>
  <path d="M147 154h26v64h-26z" fill="url(#shirt)"/>
  <path d="M144 152c7 8 14 12 23 12 10 0 19-4 28-12" fill="none" stroke="#f7e7c2" stroke-linecap="round" stroke-width="10"/>
  <path d="M131 214h66v18c0 7-5 12-12 12h-42c-7 0-12-5-12-12v-18z" fill="#17344d" opacity="0.12"/>

  <path d="M108 170c-18 9-30 24-36 42l22 12 26-38-12-16z" fill="#c48c68"/>
  <circle cx="84" cy="221" r="10" fill="#c48c68"/>
  <path d="M217 169c18 5 31 16 40 32l-20 18-30-28 10-22z" fill="#c48c68"/>
  <circle cx="254" cy="213" r="10" fill="#c48c68"/>

  <path d="M112 101c4-30 24-48 54-48 31 0 52 20 53 48 0 32-22 57-55 57-32 0-52-24-52-57z" fill="#c48c68"/>
  <path d="M121 86c11-9 26-14 45-14 19 0 35 5 46 14l2 14c-10-9-26-14-48-14-22 0-38 5-47 14l2-14z" fill="#2b2f38"/>
  <path d="M118 92c4-26 23-42 49-42 28 0 47 16 51 42-7-6-19-10-36-11-26-2-47 3-64 11z" fill="#2b2f38"/>
  <path d="M179 70c18 4 32 13 42 28 9 13 14 29 14 47 0 14-3 27-9 38l-20-7c5-10 8-22 8-35 0-15-4-29-12-40-6-10-15-18-26-24l3-7z" fill="#2b2f38"/>
  <path d="M207 151c11 8 16 18 16 29 0 9-4 16-13 21l-9-12c5-2 7-5 7-10 0-5-3-10-9-16l8-12z" fill="#2b2f38"/>
  <path d="M199 150c7-8 15-8 21-2-8 2-13 6-15 13l-6-11z" fill="#e15462"/>
  <path d="M223 148c8-6 16-5 21 3-9 0-14 4-17 11l-4-14z" fill="#e15462"/>
  <circle cx="218" cy="154" r="5" fill="#b62d40"/>

  <path d="M136 100c6-4 12-5 18-4" fill="none" stroke="#4b2e21" stroke-linecap="round" stroke-width="3"/>
  <path d="M174 100c6-1 12 0 18 4" fill="none" stroke="#4b2e21" stroke-linecap="round" stroke-width="3"/>
  <circle cx="146" cy="111" r="4" fill="#17344d"/>
  <circle cx="181" cy="111" r="4" fill="#17344d"/>
  <path d="M149 130c8 5 17 5 25 0" fill="none" stroke="#b56e5d" stroke-linecap="round" stroke-width="4"/>

  <rect x="188" y="178" width="76" height="58" rx="12" fill="url(#card)"/>
  <rect x="196" y="186" width="60" height="42" rx="8" fill="#ffffff"/>
  <path d="M206 198h18" fill="none" stroke="#17344d" stroke-linecap="round" stroke-width="5"/>
  <path d="M206 210l4 4 7-9m9 5h18" fill="none" stroke="#4da89b" stroke-linecap="round" stroke-linejoin="round" stroke-width="4.5"/>
  <path d="M206 222l4 4 7-9m9 5h18" fill="none" stroke="#d3a23a" stroke-linecap="round" stroke-linejoin="round" stroke-width="4.5"/>
  <rect x="188" y="172" width="30" height="12" rx="6" fill="#4da89b"/>

  <rect x="72" y="240" width="178" height="22" rx="11" fill="#244a6b"/>
  <rect x="90" y="232" width="142" height="16" rx="8" fill="#4e7394"/>

  <path d="M240 35c11 0 20 9 20 20 0 5-2 10-5 13l5 12-12-8h-8c-11 0-20-9-20-20s9-20 20-20z" fill="#ffffff" opacity="0.95"/>
  <path d="M236 54h8m8 0h8m-24 8h24" fill="none" stroke="#2f6a6d" stroke-linecap="round" stroke-width="4.5"/>
</svg>
